Coordinates
version=1
nRows=24
nColumns=24
inDegrees=yes

Units are S.I. units (second, meters, Newtons, ...)
Angles are in degrees.

endheader
time	pelvis_tilt	pelvis_list	pelvis_rotation	pelvis_tx	pelvis_ty	pelvis_tz	hip_flexion_r	hip_adduction_r	hip_rotation_r	knee_angle_r	ankle_angle_r	subtalar_angle_r	mtp_angle_r	hip_flexion_l	hip_adduction_l	hip_rotation_l	knee_angle_l	ankle_angle_l	subtalar_angle_l	mtp_angle_l	lumbar_extension	lumbar_bending	lumbar_rotation
      1.44000000	     75.05285944	      0.14911597	     -1.41004542	      0.56480085	      0.96657398	     -0.29801363	     -7.87494855	    -12.75603490	     -7.81030081	    -63.01925727	    -25.91950566	      0.00000000	      0.00000000	      7.38883441	     -4.48760825	      9.68545858	    -12.23684451	    -42.39484181	      0.00000000	      0.00000000	      0.00000000	      0.00000000	      0.00000000
      1.45000000	     75.05608523	      0.14993683	     -1.41097607	      0.56479009	      0.96656963	     -0.29801039	     -7.88176115	    -12.75475825	     -7.80753616	    -63.01957602	    -25.91967224	      0.00000000	      0.00000000	      7.39184551	     -4.48470089	      9.69417448	    -12.23115448	    -42.38685631	      0.00000000	      0.00000000	      0.00000000	      0.00000000	      0.00000000
      1.46000000	     75.06026593	      0.15039195	     -1.41130977	      0.56478799	      0.96655570	     -0.29801000	     -7.88937207	    -12.75140484	     -7.80384840	    -63.02166635	    -25.91948016	      0.00000000	      0.00000000	      7.39354662	     -4.48160394	      9.70755570	    -12.22073708	    -42.37990924	      0.00000000	      0.00000000	      0.00000000	      0.00000000	      0.00000000
      1.47000000	     75.06440115	      0.15057720	     -1.41021641	      0.56479904	      0.96654599	     -0.29801221	     -7.89829495	    -12.74695192	     -7.79858515	    -63.02557549	    -25.91748079	      0.00000000	      0.00000000	      7.39411930	     -4.47815917	      9.72482180	    -12.20502738	    -42.37538595	      0.00000000	      0.00000000	      0.00000000	      0.00000000	      0.00000000
      1.48000000	     75.06721501	      0.15062659	     -1.40784369	      0.56480841	      0.96654783	     -0.29801594	     -7.90873209	    -12.74272578	     -7.79167125	    -63.03054682	    -25.91274084	      0.00000000	      0.00000000	      7.39391487	     -4.47458063	      9.74507320	    -12.18458989	    -42.37420221	      0.00000000	      0.00000000	      0.00000000	      0.00000000	      0.00000000
      1.49000000	     75.06832718	      0.15083843	     -1.40547280	      0.56479849	      0.96655510	     -0.29802043	     -7.91995744	    -12.73974190	     -7.78412551	    -63.03501441	    -25.90519087	      0.00000000	      0.00000000	      7.39362199	     -4.47131189	      9.76728008	    -12.16104969	    -42.37668002	      0.00000000	      0.00000000	      0.00000000	      0.00000000	      0.00000000
      1.50000000	     75.06902695	      0.15148397	     -1.40452455	      0.56477728	      0.96655959	     -0.29802774	     -7.92987255	    -12.73827921	     -7.77764821	    -63.03712787	    -25.89542695	      0.00000000	      0.00000000	      7.39408375	     -4.46888082	      9.79021826	    -12.13669085	    -42.38255900	      0.00000000	      0.00000000	      0.00000000	      0.00000000	      0.00000000
      1.51000000	     75.07111466	      0.15241253	     -1.40531973	      0.56477099	      0.96655779	     -0.29803923	     -7.93616527	    -12.73786288	     -7.77337051	    -63.03611350	    -25.88414277	      0.00000000	      0.00000000	      7.39601218	     -4.46778870	      9.81252661	    -12.11383196	    -42.39110182	      0.00000000	      0.00000000	      0.00000000	      0.00000000	      0.00000000
      1.52000000	     75.07478676	      0.15297707	     -1.40685966	      0.56478310	      0.96654988	     -0.29804867	     -7.93853006	    -12.73755493	     -7.77080325	    -63.03354767	    -25.87165569	      0.00000000	      0.00000000	      7.40008726	     -4.46848295	      9.83299611	    -12.09414610	    -42.40126395	      0.00000000	      0.00000000	      0.00000000	      0.00000000	      0.00000000
      1.53000000	     75.07839249	      0.15266652	     -1.40777903	      0.56478962	      0.96653721	     -0.29804792	     -7.93898092	    -12.73611555	     -7.76818905	    -63.03275715	    -25.85791638	      0.00000000	      0.00000000	      7.40701690	     -4.47122238	      9.85091218	    -12.07825590	    -42.41191661	      0.00000000	      0.00000000	      0.00000000	      0.00000000	      0.00000000
      1.54000000	     75.08025216	      0.15166146	     -1.40735816	      0.56477564	      0.96652162	     -0.29803842	     -7.93974810	    -12.73230783	     -7.76390052	    -63.03646753	    -25.84297465	      0.00000000	      0.00000000	      7.41718403	     -4.47579089	      9.86619604	    -12.06582714	    -42.42210152	      0.00000000	      0.00000000	      0.00000000	      0.00000000	      0.00000000
      1.55000000	     75.08016640	      0.15056309	     -1.40560085	      0.56475182	      0.96650824	     -0.29802871	     -7.94138399	    -12.72579720	     -7.75745056	    -63.04485321	    -25.82752577	      0.00000000	      0.00000000	      7.43027359	     -4.48146808	      9.87929411	    -12.05602499	    -42.43125224	      0.00000000	      0.00000000	      0.00000000	      0.00000000	      0.00000000
      1.56000000	     75.07930859	      0.14993618	     -1.40278448	      0.56473863	      0.96650300	     -0.29802404	     -7.94282655	    -12.71778808	     -7.74962119	    -63.05549443	    -25.81313449	      0.00000000	      0.00000000	      7.44527985	     -4.48738417	      9.89092135	    -12.04803242	    -42.43929503	      0.00000000	      0.00000000	      0.00000000	      0.00000000	      0.00000000
      1.57000000	     75.07881919	      0.15014171	     -1.39929762	      0.56474264	      0.96650347	     -0.29802260	     -7.94321516	    -12.71058810	     -7.74198730	    -63.06508175	    -25.80190493	      0.00000000	      0.00000000	      7.46098574	     -4.49284288	      9.90181298	    -12.04135873	    -42.44659882	      0.00000000	      0.00000000	      0.00000000	      0.00000000	      0.00000000
      1.58000000	     75.07879779	      0.15132610	     -1.39562972	      0.56474791	      0.96650142	     -0.29802143	     -7.94331089	    -12.70644676	     -7.73625097	    -63.07126049	    -25.79570048	      0.00000000	      0.00000000	      7.47648668	     -4.49734293	      9.91260635	    -12.03592662	    -42.45379878	      0.00000000	      0.00000000	      0.00000000	      0.00000000	      0.00000000
      1.59000000	     75.07929194	      0.15361206	     -1.39203218	      0.56474049	      0.96649797	     -0.29802268	     -7.94449257	    -12.70646407	     -7.73378981	    -63.07297624	    -25.79536198	      0.00000000	      0.00000000	      7.49129705	     -4.50049350	      9.92389181	    -12.03206728	    -42.46151177	      0.00000000	      0.00000000	      0.00000000	      0.00000000	      0.00000000
      1.60000000	     75.08122888	      0.15715322	     -1.38818143	      0.56472756	      0.96650017	     -0.29803002	     -7.94736261	    -12.71027082	     -7.73529132	    -63.07004501	    -25.80036214	      0.00000000	      0.00000000	      7.50522931	     -4.50204432	      9.93638120	    -12.03035579	    -42.46997432	      0.00000000	      0.00000000	      0.00000000	      0.00000000	      0.00000000
      1.61000000	     75.08530917	      0.16189158	     -1.38344321	      0.56471730	      0.96650184	     -0.29804193	     -7.95219237	    -12.71645636	     -7.74042006	    -63.06327267	    -25.80898607	      0.00000000	      0.00000000	      7.51836213	     -4.50203297	      9.95107867	    -12.03124626	    -42.47871319	      0.00000000	      0.00000000	      0.00000000	      0.00000000	      0.00000000
      1.62000000	     75.09126971	      0.16744925	     -1.37743626	      0.56470822	      0.96649169	     -0.29805424	     -7.95926493	    -12.72317685	     -7.74794754	    -63.05435700	    -25.81885260	      0.00000000	      0.00000000	      7.53107591	     -4.50091107	      9.96929480	    -12.03468938	    -42.48642576	      0.00000000	      0.00000000	      0.00000000	      0.00000000	      0.00000000
      1.63000000	     75.09838995	      0.17316947	     -1.37030210	      0.56469549	      0.96647427	     -0.29806474	     -7.96827678	    -12.72864530	     -7.75628285	    -63.04516941	    -25.82756409	      0.00000000	      0.00000000	      7.54396577	     -4.49947400	      9.99236011	    -12.03994757	    -42.49119738	      0.00000000	      0.00000000	      0.00000000	      0.00000000	      0.00000000
      1.64000000	     75.10579500	      0.17818081	     -1.36258088	      0.56467385	      0.96646102	     -0.29807213	     -7.97806169	    -12.73153415	     -7.76395746	    -63.03709624	    -25.83332965	      0.00000000	      0.00000000	      7.55755396	     -4.49869022	     10.02110815	    -12.04570876	    -42.49102208	      0.00000000	      0.00000000	      0.00000000	      0.00000000	      0.00000000
      1.65000000	     75.11262779	      0.18168370	     -1.35496457	      0.56465383	      0.96645324	     -0.29807514	     -7.98682913	    -12.73128552	     -7.76991007	    -63.03071767	    -25.83540175	      0.00000000	      0.00000000	      7.57207028	     -4.49966362	     10.05541565	    -12.05042231	    -42.48445669	      0.00000000	      0.00000000	      0.00000000	      0.00000000	      0.00000000
      1.66000000	     75.11774580	      0.18338076	     -1.34826638	      0.56465305	      0.96644691	     -0.29807575	     -7.99325899	    -12.72821222	     -7.77351956	    -63.02617398	    -25.83419368	      0.00000000	      0.00000000	      7.58754483	     -4.50363462	     10.09398257	    -12.05266876	    -42.47119377	      0.00000000	      0.00000000	      0.00000000	      0.00000000	      0.00000000
      1.67000000	     75.11945733	      0.18363741	     -1.34341700	      0.56466451	      0.96644063	     -0.29807983	     -7.99739143	    -12.72337509	     -7.77462555	    -63.02344579	    -25.83108410	      0.00000000	      0.00000000	      7.60384072	     -4.51162640	     10.13429310	    -12.05149776	    -42.45237389	      0.00000000	      0.00000000	      0.00000000	      0.00000000	      0.00000000
